Coordinates
nRows=102
nColumns=3

# SIMM Motion File Header:
name Coordinates
datacolumns 3
datarows 102
otherdata 1
range 0.29884414999999886000 0.65535998999999612000
endheader
time	r_shoulder_elev	r_elbow_flex
      0.29884414999999886000	    -11.55308361543329300000	     56.56534296387116000000
      0.30146558999999884000	    -11.59754529232328000000	     57.01196948439407200000
      0.30277630999999883000	    -11.61886198068718000000	     57.23222836612533400000
      0.30408702999999881000	    -11.63957754752711300000	     57.45046004928694600000
      0.30670846999999879000	    -11.67923090502048200000	     57.88087241598495300000
      0.30932990999999876000	    -11.71655744817918300000	     58.30327032511950600000
      0.31195134999999874000	    -11.75161061066404500000	     58.71772366927374500000
      0.31326206999999873000	    -11.76830172550403100000	     58.92199343291124300000
      0.31457278999999871000	    -11.78444507442331900000	     59.12430521640033700000
      0.31719422999999869000	    -11.81511656481963800000	     59.52309466318044400000
      0.31981566999999866000	    -11.84368188247041000000	     59.91417488619520500000
      0.32243710999999864000	    -11.87019866350048500000	     60.29763348284768700000
      0.32505854999999861000	    -11.89472528496176400000	     60.67356078561663700000
      0.32767998999999859000	    -11.91732069926638400000	     61.04205230569050400000
      0.33030142999999856000	    -11.93804460096029800000	     61.40320424857754500000
      0.33161214999999855000	    -11.94772344530444200000	     61.58106026516119200000
      0.33292286999999854000	    -11.95695698075561500000	     61.75711959854319800000
      0.33554430999999851000	    -11.97411841443333100000	     62.10390171803388200000
      0.33816574999999849000	    -11.98958980329842600000	     62.44365811314357000000
      0.34078718999999846000	    -12.00343226837525300000	     62.77649898649684000000
      0.34340862999999844000	    -12.01570717625742900000	     63.10253629382042800000
      0.34603006999999841000	    -12.02647594968407000000	     63.42188522551212800000
      0.34865150999999839000	    -12.03580012203145900000	     63.73466192360484700000
      0.35127294999999836000	    -12.04374107027721400000	     64.04098556331965100000
      0.35389438999999834000	    -12.05036021530839500000	     64.34097583750264000000
      0.35651582999999831000	    -12.05571867884313500000	     64.63475518271184200000
      0.35913726999999829000	    -12.05987746514396300000	     64.92244612123217000000
      0.36175870999999826000	    -12.06289719849498900000	     65.20417346877256600000
      0.36438014999999824000	    -12.06483828446984700000	     65.48006214326044000000
      0.36700158999999821000	    -12.06576065645931600000	     65.75023864106199800000
      0.36962302999999819000	    -12.06572391034788800000	     66.01482962807882900000
      0.37224446999999816000	    -12.06478710426978300000	     66.27396267026419700000
      0.37486590999999814000	    -12.06300872862646600000	     66.52776512244041400000
      0.37748734999999811000	    -12.06044662568314900000	     66.77636453735463800000
      0.38010878999999809000	    -12.05715800413780600000	     67.01988823083974000000
      0.38535166999999809000	    -12.04862610279630400000	     67.49221567305973200000
      0.38797310999999807000	    -12.04349412111900000000	     67.72127193540815400000
      0.39059454999999804000	    -12.03785671584794600000	     67.94575730134148700000
      0.39321598999999802000	    -12.03176753994819100000	     68.16579479017336500000
      0.39583742999999799000	    -12.02527892646966700000	     68.38150815704287300000
      0.39845886999999797000	    -12.01844239676897900000	     68.59301867840955000000
      0.40108030999999794000	    -12.01130840097742700000	     68.80044632779112100000
      0.40632318999999795000	    -11.99634455228474500000	     69.20352332765330100000
      0.40894462999999792000	    -11.98861083231437500000	     69.39940368634592000000
      0.41156606999999790000	    -11.98077086594138900000	     69.59166203812093000000
      0.41418750999999787000	    -11.97286993953675900000	     69.78040802442529900000
      0.41680894999999785000	    -11.96495198551119200000	     69.96574929527739100000
      0.41943038999999782000	    -11.95705975092543800000	     70.14779062342492500000
      0.42205182999999780000	    -11.94923412009926100000	     70.32663196274394600000
      0.42467326999999777000	    -11.94151268272458900000	     70.50236348886282700000
      0.42991614999999778000	    -11.92651661952717600000	     70.84481020499701700000
      0.43253758999999775000	    -11.91930431534822800000	     71.01166817180795500000
      0.43515902999999773000	    -11.91232371738615600000	     71.17571336087407000000
      0.43778046999999770000	    -11.90560226416136100000	     71.33700769804710300000
      0.44302334999999771000	    -11.89302682364005100000	     71.65153230914188500000
      0.44826622999999771000	    -11.88175802531492100000	     71.95563240743351200000
      0.45088766999999769000	    -11.87667018982645600000	     72.10390086280293100000
      0.45350910999999766000	    -11.87197649977687100000	     72.24971922289645900000
      0.45875198999999767000	    -11.86385979939115600000	     72.53421756029123900000
      0.46399486999999767000	    -11.85757948419488100000	     72.80955021394940700000
      0.46661630999999765000	    -11.85517894872730700000	     72.94390697933752700000
      0.46923774999999762000	    -11.85329707081591600000	     73.07612335291437900000
      0.47448062999999763000	    -11.85116185894093700000	     73.33432232260800300000
      0.47972350999999763000	    -11.85131016568459800000	     73.58450512947601400000
      0.48234494999999761000	    -11.85227787007531800000	     73.70668850972954500000
      0.48496638999999758000	    -11.85385638779322000000	     73.82697202591255300000
      0.49020926999999759000	    -11.85887818079759100000	     74.06191691924257700000
      0.49545214999999759000	    -11.86642946252500000000	     74.28947204362054900000
      0.50069502999999760000	    -11.87655730191217700000	     74.50976794520462900000
      0.50593790999999755000	    -11.88930341065339700000	     74.72294454128051200000
      0.50855934999999752000	    -11.89666993641997700000	     74.82690566282617800000
      0.51118078999999750000	    -11.90470342846748500000	     74.92913917626451300000
      0.51642366999999745000	    -11.92278349895477200000	     75.12849066841634700000
      0.52166654999999740000	    -11.94356291105773100000	     75.32113615654068900000
      0.52690942999999735000	    -11.96705254497578600000	     75.50720999152140700000
      0.53215230999999730000	    -11.99325226384618800000	     75.68683644697043200000
      0.53739518999999725000	    -12.02215021889597000000	     75.86012171503182300000
      0.54263806999999720000	    -12.05371525825744100000	     76.02713752278209800000
      0.54788094999999715000	    -12.08788874627307500000	     76.18787936547634800000
      0.55312382999999710000	    -12.12459132002046900000	     76.34231161239125600000
      0.55836670999999705000	    -12.16375331215416500000	     76.49044919262777900000
      0.56360958999999700000	    -12.20531417067175700000	     76.63238449949726300000
      0.56885246999999695000	    -12.24922098276931100000	     76.76825173456086300000
      0.57409534999999690000	    -12.29541668119230900000	     76.89821002481673400000
      0.57933822999999685000	    -12.34382737977178500000	     77.02237457865726400000
      0.58458110999999680000	    -12.39435446729320100000	     77.14080414032183300000
      0.58982398999999675000	    -12.44689234866821800000	     77.25355121805270600000
      0.59506686999999669000	    -12.50133843525503400000	     77.36070304569358300000
      0.60030974999999664000	    -12.55759393559307700000	     77.46237879901670500000
      0.60555262999999659000	    -12.61555966716726300000	     77.55871289383284800000
      0.60817406999999657000	    -12.64515216514573100000	     77.60491636103999700000
      0.61079550999999654000	    -12.67513335025174500000	     77.64983122690317400000
      0.61603838999999649000	    -12.73620708297221400000	     77.73585092363622100000
      0.62128126999999644000	    -12.79866757185262000000	     77.81687782094276400000
      0.62652414999999639000	    -12.86239539871701600000	     77.89300374661080200000
      0.63176702999999634000	    -12.92726401114052100000	     77.96430343129803500000
      0.63438846999999632000	    -12.96008482469942900000	     77.99815941406690500000
      0.63700990999999629000	    -12.99313988636371400000	     78.03082611471532500000
      0.64225278999999624000	    -13.05988124858119900000	     78.09260133601262100000
      0.64749566999999619000	    -13.12734276826261300000	     78.14964541757102300000
      0.65273854999999614000	    -13.19537692915090300000	     78.20196869819166400000
      0.65535998999999612000	    -13.22956174649373700000	     78.22636143886319400000
